<?xml version="1.0" encoding="UTF-8"?>
<svg version="1.1" xmlns="http://www.w3.org/2000/svg" width="256" height="256">
<path d="M0 0 C1.19311798 -0.00503792 1.19311798 -0.00503792 2.41033936 -0.01017761 C5.04180458 -0.01968321 7.67320617 -0.02163038 10.3046875 -0.02270508 C12.13167345 -0.0259174 13.95865913 -0.02928145 15.78564453 -0.03279114 C19.61556597 -0.03878105 23.44546484 -0.04063113 27.27539062 -0.04003906 C32.18842412 -0.03993733 37.10131346 -0.05360195 42.01431274 -0.07081127 C45.78719755 -0.08191548 49.5600473 -0.08395878 53.33294678 -0.08342934 C55.14467873 -0.08461136 56.95641153 -0.08904555 58.76812744 -0.0967617 C61.29864694 -0.10653187 63.82885069 -0.10369565 66.359375 -0.09765625 C67.1106366 -0.10327576 67.86189819 -0.10889526 68.63592529 -0.11468506 C72.3701815 -0.09197638 73.98914111 0.01823275 77.1796875 2.14526367 C78.57660854 6.43580686 78.11087714 9.14608041 76.26757812 13.21240234 C74.19193994 16.90020026 71.3710691 19.88308141 68.4921875 22.95776367 C67.90501953 23.62485352 67.31785156 24.29194336 66.71289062 24.97924805 C66.12056641 25.61797852 65.52824219 26.25670898 64.91796875 26.91479492 C64.39243408 27.48818604 63.86689941 28.06157715 63.32543945 28.65234375 C57.89990604 32.4271915 51.28556619 32.42636921 44.91796875 32.30541992 C43.78744331 32.29761757 43.78744331 32.29761757 42.63407898 32.28965759 C40.25324093 32.27202381 37.87285644 32.24087215 35.4921875 32.20776367 C33.1008531 32.18003316 30.70958309 32.15534041 28.31816101 32.13658142 C26.83780832 32.12443933 25.35748658 32.1069517 23.87727356 32.08326721 C20.17266081 32.04739837 16.78050216 32.25195351 13.1796875 33.14526367 C12.92276123 34.15951416 12.66583496 35.17376465 12.40112305 36.21875 C11.44434348 39.98418521 10.47388274 43.74598139 9.49926758 47.50683594 C9.0795135 49.13445712 8.66346648 50.76303904 8.2512207 52.39257812 C7.65769989 54.7359497 7.05089318 57.07553231 6.44140625 59.41479492 C6.26002609 60.14301956 6.07864594 60.8712442 5.89176941 61.62153625 C4.17955017 68.09590867 4.17955017 68.09590867 1.1796875 70.14526367 C-4.40755265 71.37659176 -10.06112331 71.32849009 -15.7578125 71.33276367 C-16.61310547 71.34500977 -17.46839844 71.35725586 -18.34960938 71.36987305 C-23.8393254 71.38243533 -28.58284123 70.84341989 -33.8203125 69.14526367 C-36.99459619 62.79669629 -34.14979827 53.94045393 -32.58984375 47.41479492 C-32.35754562 46.42074142 -32.1252475 45.42668793 -31.88591003 44.4025116 C-31.39424887 42.31463077 -30.8972811 40.22799309 -30.39526367 38.14257812 C-29.63357431 34.96094583 -28.90103639 31.7734952 -28.16992188 28.5847168 C-27.68665454 26.5484913 -27.20168606 24.51266864 -26.71484375 22.47729492 C-26.5000386 21.53030228 -26.28523346 20.58330963 -26.06391907 19.60762024 C-24.41440122 12.91914103 -22.25005707 8.78981031 -16.6875 4.50073242 C-15.70136719 3.92258789 -15.70136719 3.92258789 -14.6953125 3.33276367 C-14.03273438 2.93444336 -13.37015625 2.53612305 -12.6875 2.12573242 C-8.49193139 -0.07737996 -4.61097038 -0.00278149 0 0 Z " fill="#F2BA71" transform="translate(89.8203125,112.854736328125)"/>
<path d="M0 0 C1.33547127 -0.00422974 1.33547127 -0.00422974 2.69792175 -0.00854492 C4.16683365 -0.00550858 4.16683365 -0.00550858 5.66542053 -0.00241089 C6.69477219 -0.00416321 7.72412384 -0.00591553 8.78466797 -0.00772095 C12.20074632 -0.01213637 15.61677325 -0.00920232 19.03285217 -0.00582886 C21.39935313 -0.00650204 23.76585402 -0.00747218 26.13235474 -0.00872803 C31.09813595 -0.01020462 36.06389921 -0.00805185 41.02967834 -0.00338745 C47.40336253 0.0023067 53.77700458 -0.00096743 60.15068722 -0.00695992 C65.03961506 -0.0105692 69.92853287 -0.00942519 74.81746101 -0.00683212 C77.16786771 -0.00616371 79.51827531 -0.00698829 81.86868095 -0.00931168 C85.15121251 -0.01184384 88.43367536 -0.00798941 91.71620178 -0.00241089 C92.69345215 -0.00443512 93.67070251 -0.00645935 94.67756653 -0.00854492 C95.57070053 -0.0057251 96.46383453 -0.00290527 97.3840332 0 C98.16035064 0.00037703 98.93666807 0.00075405 99.73651028 0.0011425 C101.75550842 0.12698364 101.75550842 0.12698364 104.75550842 1.12698364 C106.33875599 4.29347878 106.39925078 7.70156558 105.75550842 11.12698364 C102.96922485 15.80326376 99.59398067 20.08336266 96.25550842 24.37698364 C95.54587952 25.31284302 95.54587952 25.31284302 94.82191467 26.26760864 C94.35656311 26.86573364 93.89121155 27.46385864 93.41175842 28.08010864 C92.99732483 28.61796997 92.58289124 29.1558313 92.15589905 29.70999146 C89.95260159 31.93940889 87.7370873 33.0100669 84.61904907 33.38145924 C83.84625107 33.38351211 83.07345306 33.38556498 82.27723694 33.38768005 C81.38561859 33.39476486 80.49400024 33.40184967 79.57536316 33.40914917 C78.60485016 33.40667175 77.63433716 33.40419434 76.63441467 33.40164185 C75.60637726 33.40675278 74.57833984 33.41186371 73.51914978 33.41712952 C70.11871023 33.43103731 66.71847305 33.43006801 63.31800842 33.42776489 C60.95676091 33.43165078 58.59551409 33.43598523 56.23426819 33.44075012 C51.28461949 33.44821461 46.33504211 33.44791908 41.38539124 33.44265747 C35.03642655 33.43685849 28.68775317 33.45380331 22.33883667 33.47700214 C17.4627257 33.49171824 12.58668527 33.49261414 7.71055603 33.48949242 C5.36934329 33.49000656 3.02812669 33.4952617 0.68693542 33.50530434 C-2.58336962 33.51761187 -5.85310226 33.51091125 -9.12339783 33.4992981 C-10.57916733 33.5107637 -10.57916733 33.5107637 -12.06434631 33.52246094 C-12.95596466 33.51544662 -13.84758301 33.50843231 -14.76622009 33.50120544 C-15.5390181 33.50137319 -16.3118161 33.50154093 -17.10803223 33.50171375 C-19.83260583 33.02382974 -21.21379439 31.97333973 -23.24449158 30.12698364 C-24.64044577 26.77669358 -24.31064758 25.31315916 -23.08824158 21.87307739 C-21.280515 17.83227681 -18.7247645 14.7322314 -15.80699158 11.43948364 C-15.32939392 10.88454224 -14.85179626 10.32960083 -14.35972595 9.75784302 C-5.90386828 0.00286866 -5.90386828 0.00286866 0 0 Z " fill="#F8AA7C" transform="translate(98.24449157714844,75.87301635742188)"/>
<path d="M0 0 C1.19311798 -0.00503792 1.19311798 -0.00503792 2.41033936 -0.01017761 C5.04180458 -0.01968321 7.67320617 -0.02163038 10.3046875 -0.02270508 C12.13167345 -0.0259174 13.95865913 -0.02928145 15.78564453 -0.03279114 C19.61556597 -0.03878105 23.44546484 -0.04063113 27.27539062 -0.04003906 C32.18842412 -0.03993733 37.10131346 -0.05360195 42.01431274 -0.07081127 C45.78719755 -0.08191548 49.5600473 -0.08395878 53.33294678 -0.08342934 C55.14467873 -0.08461136 56.95641153 -0.08904555 58.76812744 -0.0967617 C61.29864694 -0.10653187 63.82885069 -0.10369565 66.359375 -0.09765625 C67.1106366 -0.10327576 67.86189819 -0.10889526 68.63592529 -0.11468506 C72.3701815 -0.09197638 73.98914111 0.01823275 77.1796875 2.14526367 C78.57660854 6.43580686 78.11087714 9.14608041 76.26757812 13.21240234 C74.19193994 16.90020026 71.3710691 19.88308141 68.4921875 22.95776367 C67.90501953 23.62485352 67.31785156 24.29194336 66.71289062 24.97924805 C66.12056641 25.61797852 65.52824219 26.25670898 64.91796875 26.91479492 C64.39243408 27.48818604 63.86689941 28.06157715 63.32543945 28.65234375 C57.89990604 32.4271915 51.28556619 32.42636921 44.91796875 32.30541992 C43.78744331 32.29761757 43.78744331 32.29761757 42.63407898 32.28965759 C40.25324093 32.27202381 37.87285644 32.24087215 35.4921875 32.20776367 C33.1008531 32.18003316 30.70958309 32.15534041 28.31816101 32.13658142 C26.83780832 32.12443933 25.35748658 32.1069517 23.87727356 32.08326721 C20.17266081 32.04739837 16.78050216 32.25195351 13.1796875 33.14526367 C12.92276123 34.15951416 12.66583496 35.17376465 12.40112305 36.21875 C11.44434348 39.98418521 10.47388274 43.74598139 9.49926758 47.50683594 C9.0795135 49.13445712 8.66346648 50.76303904 8.2512207 52.39257812 C7.65769989 54.7359497 7.05089318 57.07553231 6.44140625 59.41479492 C6.26002609 60.14301956 6.07864594 60.8712442 5.89176941 61.62153625 C4.17955017 68.09590867 4.17955017 68.09590867 1.1796875 70.14526367 C-4.40755265 71.37659176 -10.06112331 71.32849009 -15.7578125 71.33276367 C-16.61310547 71.34500977 -17.46839844 71.35725586 -18.34960938 71.36987305 C-23.8393254 71.38243533 -28.58284123 70.84341989 -33.8203125 69.14526367 C-36.99459619 62.79669629 -34.14979827 53.94045393 -32.58984375 47.41479492 C-32.35754562 46.42074142 -32.1252475 45.42668793 -31.88591003 44.4025116 C-31.39424887 42.31463077 -30.8972811 40.22799309 -30.39526367 38.14257812 C-29.63357431 34.96094583 -28.90103639 31.7734952 -28.16992188 28.5847168 C-27.68665454 26.5484913 -27.20168606 24.51266864 -26.71484375 22.47729492 C-26.5000386 21.53030228 -26.28523346 20.58330963 -26.06391907 19.60762024 C-24.41440122 12.91914103 -22.25005707 8.78981031 -16.6875 4.50073242 C-15.70136719 3.92258789 -15.70136719 3.92258789 -14.6953125 3.33276367 C-14.03273438 2.93444336 -13.37015625 2.53612305 -12.6875 2.12573242 C-8.49193139 -0.07737996 -4.61097038 -0.00278149 0 0 Z M-17.8203125 10.14526367 C-19.15130802 13.46698939 -20.04602801 16.78654874 -20.78515625 20.28198242 C-20.9437915 21.01843994 -21.10242676 21.75489746 -21.26586914 22.51367188 C-21.42821045 23.27897217 -21.59055176 24.04427246 -21.7578125 24.83276367 C-23.04488828 30.77030572 -24.44818589 36.63521744 -26.09375 42.48510742 C-26.95833621 45.65060855 -27.74470749 48.82877311 -28.5078125 52.02026367 C-28.75917969 53.06956055 -29.01054688 54.11885742 -29.26953125 55.19995117 C-29.9734927 58.46500273 -29.9734927 58.46500273 -29.8203125 63.14526367 C-20.5803125 63.14526367 -11.3403125 63.14526367 -1.8203125 63.14526367 C0.89362443 55.90809852 2.95194984 48.8562939 4.8671875 41.39526367 C5.18751953 40.17709961 5.50785156 38.95893555 5.83789062 37.70385742 C6.14017578 36.53467773 6.44246094 35.36549805 6.75390625 34.16088867 C7.02807373 33.10160156 7.30224121 32.04231445 7.5847168 30.95092773 C8.31798579 27.97110877 8.31798579 27.97110877 8.1796875 24.14526367 C8.76691589 24.17635223 9.35414429 24.2074408 9.95916748 24.23947144 C16.1234072 24.55147087 22.28538036 24.76121114 28.45556641 24.91430664 C30.7510903 24.9843177 33.04599863 25.0795722 35.33935547 25.20141602 C49.1477933 26.45006955 49.1477933 26.45006955 61.25976562 21.14233398 C63.91453076 18.2792026 66.03742218 15.18645587 68.0489502 11.84844971 C69.74944838 9.28705481 71.99737979 7.29518001 74.1796875 5.14526367 C74.1796875 4.48526367 74.1796875 3.82526367 74.1796875 3.14526367 C63.80881467 2.98248468 53.43824979 2.85839776 43.06635571 2.78257847 C38.24926046 2.74617329 33.43304442 2.69685902 28.61645508 2.6171875 C23.96090981 2.54066896 19.3062057 2.49917795 14.65007973 2.48112297 C12.88111454 2.4682704 11.11219115 2.44317265 9.34358788 2.40515327 C-0.8712649 2.19446368 -10.30554068 2.04087556 -17.8203125 10.14526367 Z " fill="#040201" transform="translate(89.8203125,112.854736328125)"/>
<path d="M0 0 C1.33547127 -0.00422974 1.33547127 -0.00422974 2.69792175 -0.00854492 C4.16683365 -0.00550858 4.16683365 -0.00550858 5.66542053 -0.00241089 C6.69477219 -0.00416321 7.72412384 -0.00591553 8.78466797 -0.00772095 C12.20074632 -0.01213637 15.61677325 -0.00920232 19.03285217 -0.00582886 C21.39935313 -0.00650204 23.76585402 -0.00747218 26.13235474 -0.00872803 C31.09813595 -0.01020462 36.06389921 -0.00805185 41.02967834 -0.00338745 C47.40336253 0.0023067 53.77700458 -0.00096743 60.15068722 -0.00695992 C65.03961506 -0.0105692 69.92853287 -0.00942519 74.81746101 -0.00683212 C77.16786771 -0.00616371 79.51827531 -0.00698829 81.86868095 -0.00931168 C85.15121251 -0.01184384 88.43367536 -0.00798941 91.71620178 -0.00241089 C92.69345215 -0.00443512 93.67070251 -0.00645935 94.67756653 -0.00854492 C95.57070053 -0.0057251 96.46383453 -0.00290527 97.3840332 0 C98.16035064 0.00037703 98.93666807 0.00075405 99.73651028 0.0011425 C101.75550842 0.12698364 101.75550842 0.12698364 104.75550842 1.12698364 C106.33875599 4.29347878 106.39925078 7.70156558 105.75550842 11.12698364 C102.96922485 15.80326376 99.59398067 20.08336266 96.25550842 24.37698364 C95.54587952 25.31284302 95.54587952 25.31284302 94.82191467 26.26760864 C94.35656311 26.86573364 93.89121155 27.46385864 93.41175842 28.08010864 C92.99732483 28.61796997 92.58289124 29.1558313 92.15589905 29.70999146 C89.95260159 31.93940889 87.7370873 33.0100669 84.61904907 33.38145924 C83.84625107 33.38351211 83.07345306 33.38556498 82.27723694 33.38768005 C81.38561859 33.39476486 80.49400024 33.40184967 79.57536316 33.40914917 C78.60485016 33.40667175 77.63433716 33.40419434 76.63441467 33.40164185 C75.60637726 33.40675278 74.57833984 33.41186371 73.51914978 33.41712952 C70.11871023 33.43103731 66.71847305 33.43006801 63.31800842 33.42776489 C60.95676091 33.43165078 58.59551409 33.43598523 56.23426819 33.44075012 C51.28461949 33.44821461 46.33504211 33.44791908 41.38539124 33.44265747 C35.03642655 33.43685849 28.68775317 33.45380331 22.33883667 33.47700214 C17.4627257 33.49171824 12.58668527 33.49261414 7.71055603 33.48949242 C5.36934329 33.49000656 3.02812669 33.4952617 0.68693542 33.50530434 C-2.58336962 33.51761187 -5.85310226 33.51091125 -9.12339783 33.4992981 C-10.57916733 33.5107637 -10.57916733 33.5107637 -12.06434631 33.52246094 C-12.95596466 33.51544662 -13.84758301 33.50843231 -14.76622009 33.50120544 C-15.5390181 33.50137319 -16.3118161 33.50154093 -17.10803223 33.50171375 C-19.83260583 33.02382974 -21.21379439 31.97333973 -23.24449158 30.12698364 C-24.64044577 26.77669358 -24.31064758 25.31315916 -23.08824158 21.87307739 C-21.280515 17.83227681 -18.7247645 14.7322314 -15.80699158 11.43948364 C-15.32939392 10.88454224 -14.85179626 10.32960083 -14.35972595 9.75784302 C-5.90386828 0.00286866 -5.90386828 0.00286866 0 0 Z M-14.24449158 16.12698364 C-15.29356294 17.53293749 -16.35296625 18.93138521 -17.43199158 20.31448364 C-19.42505869 22.84951737 -19.42505869 22.84951737 -19.24449158 25.12698364 C-5.71007599 25.38218322 7.82376472 25.57747007 21.36009884 25.69691753 C27.64616993 25.75425644 33.9305917 25.83198625 40.2157135 25.95681763 C46.28480717 26.07659995 52.35231781 26.14216318 58.42250252 26.17063332 C60.73471052 26.19091308 63.04683462 26.23051836 65.35836601 26.29001427 C77.93223924 27.26193962 77.93223924 27.26193962 89.08610535 22.76312256 C91.37405865 19.98443129 93.04074348 17.28002033 94.75550842 14.12698364 C96.06767313 12.59010657 97.4158142 11.08218766 98.81800842 9.62698364 C101.47611765 6.90466948 101.47611765 6.90466948 101.75550842 3.12698364 C88.25581465 2.82512302 74.75692966 2.59446285 61.25454235 2.45342541 C54.98387234 2.38571497 48.71551891 2.29396156 42.44618225 2.14627075 C36.38998158 2.00450182 30.33600128 1.92718564 24.27826881 1.89357948 C21.97319398 1.86964827 19.66823423 1.82291044 17.36411095 1.7524929 C1.88676309 1.29850638 -6.18882309 2.32393469 -14.24449158 16.12698364 Z " fill="#060303" transform="translate(98.24449157714844,75.87301635742188)"/>
<path d="M0 0 C1.02485504 -0.00087616 2.04971008 -0.00175232 3.10562134 -0.00265503 C6.48810436 0.00152019 9.86859649 0.04817228 13.25073242 0.09521484 C15.59770118 0.10640713 17.94468396 0.11494716 20.29167175 0.12094116 C26.46518745 0.14383642 32.63785448 0.20276746 38.81103516 0.26916504 C45.111781 0.33057147 51.41266414 0.35795279 57.71362305 0.38818359 C70.07402171 0.45250856 82.43379083 0.55489789 94.79370117 0.68115234 C94.41870117 2.61865234 94.41870117 2.61865234 93.79370117 4.68115234 C93.13370117 5.01115234 92.47370117 5.34115234 91.79370117 5.68115234 C91.79370117 4.69115234 91.79370117 3.70115234 91.79370117 2.68115234 C40.80870117 3.17615234 40.80870117 3.17615234 -11.20629883 3.68115234 C-11.86629883 5.33115234 -12.52629883 6.98115234 -13.20629883 8.68115234 C-15.33129883 9.99365234 -15.33129883 9.99365234 -17.20629883 10.68115234 C-13.33367513 1.52767814 -9.48423932 -0.21226383 0 0 Z " fill="#F1A57F" transform="translate(105.206298828125,78.31884765625)"/>
<path d="M0 0 C34.65 0 69.3 0 105 0 C104.67 1.32 104.34 2.64 104 4 C103.34 4.33 102.68 4.66 102 5 C101.505 3.515 101.505 3.515 101 2 C67.67 1.67 34.34 1.34 0 1 C0 0.67 0 0.34 0 0 Z " fill="#BE8466" transform="translate(95,79)"/>
<path d="M0 0 C0.79047729 -0.00043808 1.58095459 -0.00087616 2.39538574 -0.00132751 C5.00904004 0.00076307 7.62205342 0.02410641 10.2355957 0.04760742 C12.04734446 0.05320243 13.85909775 0.05747298 15.67085266 0.06047058 C20.44016036 0.07192688 25.20919412 0.1014008 29.97839355 0.13458252 C34.84468886 0.16526649 39.71102842 0.17897234 44.57739258 0.1940918 C54.12634108 0.22626976 63.67508624 0.2774756 73.22387695 0.34057617 C72.89387695 1.33057617 72.56387695 2.32057617 72.22387695 3.34057617 C71.72887695 2.35057617 71.72887695 2.35057617 71.22387695 1.34057617 C45.81387695 1.34057617 20.40387695 1.34057617 -5.77612305 1.34057617 C-5.77612305 2.00057617 -5.77612305 2.66057617 -5.77612305 3.34057617 C-7.42612305 3.34057617 -9.07612305 3.34057617 -10.77612305 3.34057617 C-8.0614807 -0.61821087 -4.35084084 -0.06285281 0 0 Z " fill="#C89665" transform="translate(90.776123046875,115.659423828125)"/>
<path d="M0 0 C1.2777832 0.02618408 2.55556641 0.05236816 3.87207031 0.0793457 C4.55448792 0.08642044 5.23690552 0.09349518 5.94000244 0.1007843 C8.11120093 0.12868674 10.27978199 0.19140443 12.45019531 0.25512695 C13.92541837 0.28021578 15.40068202 0.30302795 16.87597656 0.32348633 C20.48489435 0.37849558 24.09228922 0.46473388 27.70019531 0.56762695 C27.70019531 0.89762695 27.70019531 1.22762695 27.70019531 1.56762695 C12.35519531 2.06262695 12.35519531 2.06262695 -3.29980469 2.56762695 C-3.95980469 4.21762695 -4.61980469 5.86762695 -5.29980469 7.56762695 C-7.42480469 8.88012695 -7.42480469 8.88012695 -9.29980469 9.56762695 C-7.2024635 4.84860928 -5.380683 0.9255762 0 0 Z " fill="#F1A57F" transform="translate(97.2998046875,79.432373046875)"/>
<path d="M0 0 C10.23 0 20.46 0 31 0 C29.92643531 4.29425875 29.4915227 4.74740471 26 7 C26 5.68 26 4.36 26 3 C26.99 3 27.98 3 29 3 C29 2.34 29 1.68 29 1 C19.43 1 9.86 1 0 1 C0 0.67 0 0.34 0 0 Z " fill="#EDAE76" transform="translate(131,117)"/>
<path d="M0 0 C0.33 0.66 0.66 1.32 1 2 C-2.625 7.875 -2.625 7.875 -6 9 C-4.47291037 5.56404834 -2.40072955 2.88087546 0 0 Z " fill="#C38767" transform="translate(94,80)"/>
<path d="M0 0 C0.33 0.66 0.66 1.32 1 2 C-0.25 4.5625 -0.25 4.5625 -2 7 C-2.99 7.33 -3.98 7.66 -5 8 C-3.62845496 5.04590299 -2.01136276 2.55991624 0 0 Z " fill="#C08766" transform="translate(85,91)"/>
</svg>
